<svg viewBox="0 0 38 38" xmlns="http://www.w3.org/2000/svg">
  <path fill="white" fill-rule="evenodd" d="M22.2 0c.4 0 .8.3.8.8v8.8l6-6.2c.3-.4.9-.4 1.1 0L34.7 8c.3.3.4.8 0 1v.1l-6 6.2h8.5c.5 0 .8.3.8.8v6.6c0 .5-.3.8-.8.8h-8.6l6.1 6.2c.3.3.4.8 0 1.1l-4.6 4.7c-.2.3-.8.4-1 0l-6-6.2v8.8c0 .5-.4.8-.9.8h-6.4c-.5 0-.8-.3-.8-.8v-4.6c0-1.4.6-2.8 1.5-3.9l8.4-8.5c.9-1 .9-2.5 0-3.4l-8.3-8.5c-1-1-1.6-2.4-1.6-3.8V.8c0-.5.3-.8.8-.8h6.4ZM8.8 3.4H9l14 14.4c1 1 1 2.5 0 3.4L9 35.6c-.2.4-.8.4-1 0L3.2 31c-.3-.3-.4-.7 0-1l6-6.4H.9c-.5 0-.8-.3-.8-.8v-6.6c0-.5.3-.8.8-.8h8.6L3.3 9.2a1 1 0 0 1 0-1.1l4.5-4.7c.3-.3.8-.3 1 0Z" clip-rule="evenodd"/>
</svg>
